<svg width="746" height="722" viewBox="0 0 746 722" fill="none" xmlns="http://www.w3.org/2000/svg">
<path d="M680.603 720.622V648.282C680.603 648.282 708.794 699.568 680.603 720.622Z" fill="#F1F1F1"/>
<path d="M682.344 720.61L629.055 671.688C629.055 671.688 685.9 685.604 682.344 720.61Z" fill="#F1F1F1"/>
<path d="M494.387 319.188L211.602 484.466C210.612 485.043 209.434 485.204 208.326 484.913C207.218 484.623 206.27 483.904 205.691 482.916L23.8416 171.778C23.2646 170.788 23.1038 169.61 23.3945 168.502C23.6851 167.393 24.4034 166.446 25.3918 165.867L308.177 0.588659C309.167 0.0117054 310.345 -0.149099 311.453 0.141524C312.561 0.432146 313.509 1.15046 314.088 2.13889L495.937 313.277C496.514 314.267 496.675 315.445 496.385 316.553C496.094 317.661 495.376 318.609 494.387 319.188Z" fill="white"/>
<path d="M494.387 319.188L211.602 484.466C210.612 485.043 209.434 485.204 208.326 484.913C207.218 484.623 206.27 483.904 205.691 482.916L23.8416 171.778C23.2646 170.788 23.1038 169.61 23.3945 168.502C23.6851 167.393 24.4034 166.446 25.3918 165.867L308.177 0.588659C309.167 0.0117054 310.345 -0.149099 311.453 0.141524C312.561 0.432146 313.509 1.15046 314.088 2.13889L495.937 313.277C496.514 314.267 496.675 315.445 496.385 316.553C496.094 317.661 495.376 318.609 494.387 319.188ZM26.264 167.359C25.6709 167.706 25.2399 168.275 25.0655 168.94C24.8912 169.605 24.9877 170.312 25.3339 170.905L207.183 482.044C207.531 482.637 208.099 483.068 208.764 483.242C209.429 483.417 210.136 483.32 210.73 482.974L493.515 317.696C494.108 317.349 494.539 316.78 494.714 316.115C494.888 315.45 494.791 314.743 494.445 314.149L312.596 3.01102C312.248 2.41794 311.68 1.98692 311.015 1.81254C310.35 1.63817 309.643 1.73467 309.049 2.08088L26.264 167.359Z" fill="#3F3D56"/>
<path d="M208.04 198.344L137.903 239.336C136.914 239.913 135.735 240.074 134.627 239.783C133.519 239.493 132.571 238.775 131.992 237.786L90.9998 167.649C90.4228 166.66 90.262 165.481 90.5527 164.373C90.8433 163.265 91.5616 162.318 92.55 161.738L162.687 120.746C163.676 120.169 164.855 120.008 165.963 120.299C167.071 120.589 168.019 121.308 168.598 122.296L209.59 192.433C210.167 193.423 210.328 194.601 210.037 195.709C209.747 196.817 209.028 197.765 208.04 198.344ZM93.4222 163.231C92.8291 163.578 92.3981 164.147 92.2237 164.812C92.0494 165.476 92.1459 166.183 92.4921 166.777L133.485 236.914C133.832 237.507 134.401 237.938 135.066 238.112C135.73 238.287 136.437 238.19 137.031 237.844L207.168 196.852C207.761 196.504 208.192 195.936 208.366 195.271C208.541 194.606 208.444 193.899 208.098 193.305L167.106 123.168C166.758 122.575 166.19 122.144 165.525 121.97C164.86 121.795 164.153 121.892 163.559 122.238L93.4222 163.231Z" fill="#F2F2F2"/>
<path d="M192.91 218.699L122.773 259.691C121.882 260.21 120.822 260.355 119.824 260.093C118.827 259.832 117.974 259.185 117.453 258.296L76.4605 188.159C75.9412 187.268 75.7965 186.208 76.058 185.211C76.3196 184.213 76.9661 183.36 77.8557 182.839L147.992 141.847C148.883 141.327 149.944 141.183 150.941 141.444C151.938 141.706 152.791 142.352 153.312 143.242L194.305 213.379C194.824 214.269 194.969 215.33 194.707 216.327C194.446 217.324 193.799 218.177 192.91 218.699Z" fill="#0A2D4F"/>
<path d="M362.197 165.803L142.833 294.013C141.942 294.534 140.882 294.679 139.884 294.417C138.886 294.156 138.033 293.508 137.513 292.618C136.992 291.727 136.847 290.667 137.109 289.669C137.37 288.671 138.018 287.818 138.908 287.298L358.272 159.088C358.713 158.83 359.2 158.662 359.706 158.592C360.212 158.523 360.727 158.554 361.221 158.683C361.715 158.813 362.178 159.039 362.585 159.347C362.992 159.656 363.334 160.042 363.592 160.483C363.85 160.924 364.018 161.411 364.087 161.917C364.157 162.423 364.126 162.938 363.996 163.432C363.866 163.926 363.641 164.389 363.332 164.796C363.023 165.203 362.638 165.545 362.197 165.803Z" fill="#CCCCCC"/>
<path d="M322.74 219.896L156.351 317.144C155.911 317.401 155.423 317.57 154.917 317.639C154.411 317.708 153.897 317.677 153.402 317.548C152.405 317.286 151.552 316.639 151.031 315.748C150.511 314.858 150.366 313.797 150.627 312.799C150.889 311.802 151.536 310.949 152.427 310.428L318.815 213.18C319.256 212.923 319.743 212.754 320.249 212.685C320.755 212.616 321.27 212.647 321.764 212.776C322.258 212.906 322.721 213.131 323.128 213.44C323.535 213.749 323.877 214.135 324.135 214.576C324.393 215.016 324.561 215.504 324.63 216.01C324.7 216.516 324.669 217.031 324.539 217.525C324.409 218.019 324.184 218.482 323.875 218.889C323.566 219.296 323.181 219.638 322.74 219.896V219.896Z" fill="#CCCCCC"/>
<path d="M311.736 81.1797L214.738 137.871C213.848 138.392 212.787 138.537 211.789 138.276C210.791 138.014 209.939 137.367 209.418 136.476C208.898 135.586 208.752 134.525 209.014 133.527C209.276 132.53 209.923 131.677 210.813 131.156L307.811 74.4645C308.701 73.9441 309.762 73.7987 310.76 74.0603C311.254 74.1899 311.718 74.4155 312.124 74.7242C312.531 75.033 312.873 75.4188 313.131 75.8597C313.389 76.3007 313.557 76.788 313.626 77.294C313.696 77.8 313.665 78.3147 313.535 78.8087C313.406 79.3027 313.18 79.7664 312.871 80.1732C312.562 80.58 312.177 80.922 311.736 81.1797Z" fill="#CCCCCC"/>
<path d="M301.047 118.458L228.257 161.001C227.816 161.259 227.328 161.427 226.822 161.497C226.316 161.566 225.802 161.535 225.308 161.406C224.814 161.276 224.35 161.05 223.943 160.742C223.536 160.433 223.194 160.047 222.937 159.606C222.679 159.165 222.511 158.678 222.441 158.172C222.372 157.666 222.403 157.151 222.532 156.657C222.662 156.163 222.888 155.7 223.196 155.293C223.505 154.886 223.891 154.544 224.332 154.286L297.122 111.743C298.013 111.222 299.073 111.077 300.071 111.339C301.069 111.6 301.922 112.248 302.442 113.138C302.963 114.029 303.108 115.089 302.846 116.087C302.585 117.085 301.937 117.938 301.047 118.458Z" fill="#CCCCCC"/>
<path d="M389.234 212.064L169.87 340.274C168.979 340.794 167.919 340.94 166.921 340.678C165.923 340.416 165.07 339.769 164.55 338.879C164.03 337.988 163.884 336.927 164.146 335.93C164.407 334.932 165.055 334.079 165.945 333.559L385.309 205.348C386.199 204.828 387.26 204.682 388.258 204.944C389.256 205.206 390.109 205.853 390.629 206.744C391.149 207.634 391.295 208.695 391.033 209.693C390.771 210.69 390.124 211.543 389.234 212.064V212.064Z" fill="#CCCCCC"/>
<path d="M349.777 266.156L183.389 363.404C182.948 363.661 182.46 363.83 181.954 363.899C181.448 363.969 180.934 363.938 180.44 363.808C179.946 363.678 179.482 363.453 179.075 363.144C178.668 362.835 178.326 362.449 178.069 362.009C177.811 361.568 177.642 361.08 177.573 360.574C177.504 360.068 177.535 359.554 177.664 359.06C177.794 358.566 178.019 358.102 178.328 357.695C178.637 357.288 179.023 356.946 179.464 356.689L345.852 259.441C346.293 259.183 346.78 259.015 347.286 258.945C347.792 258.876 348.307 258.907 348.801 259.036C349.295 259.166 349.758 259.392 350.165 259.7C350.572 260.009 350.914 260.395 351.172 260.836C351.43 261.277 351.598 261.764 351.667 262.27C351.737 262.776 351.706 263.291 351.576 263.785C351.447 264.279 351.221 264.742 350.912 265.149C350.603 265.556 350.218 265.898 349.777 266.156V266.156Z" fill="#CCCCCC"/>
<path d="M416.272 258.324L196.908 386.534C196.467 386.792 195.98 386.96 195.474 387.029C194.968 387.099 194.453 387.068 193.959 386.938C193.465 386.809 193.001 386.583 192.595 386.274C192.188 385.966 191.846 385.58 191.588 385.139C191.33 384.698 191.162 384.211 191.093 383.705C191.023 383.199 191.054 382.684 191.184 382.19C191.313 381.696 191.539 381.232 191.848 380.825C192.157 380.419 192.542 380.077 192.983 379.819L412.347 251.609C412.788 251.351 413.275 251.183 413.781 251.113C414.287 251.044 414.802 251.075 415.296 251.204C415.79 251.334 416.254 251.559 416.66 251.868C417.067 252.177 417.409 252.563 417.667 253.004C417.925 253.445 418.093 253.932 418.162 254.438C418.232 254.944 418.201 255.459 418.071 255.953C417.942 256.447 417.716 256.91 417.407 257.317C417.099 257.724 416.713 258.066 416.272 258.324Z" fill="#CCCCCC"/>
<path d="M429.79 281.454L210.427 409.664C209.986 409.922 209.498 410.09 208.992 410.16C208.486 410.229 207.972 410.198 207.478 410.069C206.984 409.939 206.52 409.714 206.113 409.405C205.706 409.096 205.364 408.71 205.107 408.269C204.849 407.828 204.681 407.341 204.611 406.835C204.542 406.329 204.573 405.814 204.702 405.32C204.832 404.826 205.058 404.363 205.366 403.956C205.675 403.549 206.061 403.207 206.502 402.949L425.866 274.739C426.306 274.481 426.794 274.313 427.3 274.244C427.806 274.174 428.32 274.205 428.814 274.335C429.309 274.464 429.772 274.69 430.179 274.999C430.586 275.307 430.928 275.693 431.186 276.134C431.443 276.575 431.612 277.062 431.681 277.568C431.75 278.074 431.719 278.589 431.59 279.083C431.46 279.577 431.235 280.041 430.926 280.448C430.617 280.854 430.231 281.196 429.79 281.454Z" fill="#CCCCCC"/>
<path d="M358.853 371.497C361.901 367.908 364.644 364.071 367.054 360.026C369.216 356.377 371.337 352.476 371.813 348.197C372.057 346.375 371.867 344.52 371.259 342.785C370.651 341.05 369.642 339.483 368.315 338.211C367.031 337.028 365.405 336.285 363.671 336.087C361.936 335.89 360.185 336.25 358.668 337.115C357.134 337.995 355.867 339.274 355 340.817C354.133 342.359 353.7 344.106 353.745 345.875C353.87 347.822 354.432 349.716 355.391 351.415C356.35 353.114 357.679 354.575 359.281 355.689C365.765 360.386 375.891 360.141 382.802 356.566C390.586 352.539 394.608 342.004 388.492 334.793C387.22 333.293 385.104 334.969 385.422 336.587C385.827 338.773 387.05 340.722 388.842 342.036C390.635 343.349 392.862 343.929 395.068 343.657C397.273 343.384 399.292 342.28 400.711 340.569C402.129 338.858 402.842 336.67 402.701 334.452L399.952 336.059C403.323 337.552 407.027 338.131 410.692 337.737C414.357 337.344 417.854 335.993 420.832 333.819C422.304 332.749 423.619 331.478 424.739 330.043C426.084 328.287 428.345 327.153 430.175 325.888L443.366 316.774C445.306 315.433 443.461 312.239 441.505 313.59L429.559 321.845C427.568 323.22 425.564 324.579 423.586 325.972C422.171 326.968 421.301 328.575 420.014 329.758C417.577 331.949 414.568 333.403 411.336 333.95C408.105 334.497 404.784 334.114 401.762 332.845C401.481 332.694 401.165 332.617 400.845 332.623C400.526 332.629 400.213 332.716 399.937 332.878C399.661 333.039 399.431 333.268 399.27 333.544C399.108 333.82 399.019 334.132 399.013 334.452C399.159 335.775 398.776 337.103 397.947 338.145C397.118 339.188 395.911 339.86 394.589 340.017C393.267 340.174 391.936 339.801 390.887 338.982C389.838 338.162 389.155 336.96 388.987 335.639L385.917 337.434C389.862 342.086 387.235 349.221 382.69 352.343C377.607 355.834 370.097 356.439 364.368 354.27C362.962 353.786 361.672 353.018 360.576 352.013C359.481 351.008 358.605 349.788 358.003 348.429C357.444 347.202 357.285 345.83 357.547 344.508C357.809 343.185 358.48 341.978 359.465 341.056C360.318 340.214 361.465 339.735 362.664 339.722C363.863 339.71 365.021 340.163 365.892 340.988C366.84 341.956 367.536 343.143 367.918 344.444C368.3 345.745 368.357 347.12 368.082 348.447C367.492 352.142 365.449 355.549 363.549 358.704C361.38 362.3 358.926 365.717 356.212 368.921C354.691 370.722 357.316 373.316 358.853 371.497L358.853 371.497Z" fill="#0A2D4F"/>
<path d="M391.593 459.178C391.911 459.505 392.202 459.857 392.465 460.229L433.314 459.23L438.079 450.522L452.161 455.996L445.223 472.232C444.662 473.543 443.691 474.638 442.456 475.351C441.22 476.063 439.787 476.356 438.371 476.185L392.22 470.61C391.131 471.988 389.649 473.002 387.97 473.518C386.291 474.033 384.494 474.024 382.82 473.494C381.146 472.963 379.673 471.936 378.597 470.547C377.521 469.159 376.893 467.476 376.797 465.723C376.701 463.969 377.141 462.228 378.059 460.73C378.976 459.233 380.328 458.05 381.934 457.34C383.541 456.629 385.325 456.425 387.05 456.753C388.776 457.082 390.36 457.927 391.593 459.178Z" fill="#FFB7B7"/>
<path d="M524.753 707.255H511.322L504.932 655.448L524.755 655.449L524.753 707.255Z" fill="#FFB7B7"/>
<path d="M528.178 720.275L484.87 720.273V719.726C484.87 715.255 486.646 710.968 489.808 707.807C492.969 704.645 497.256 702.869 501.727 702.869H501.728L528.179 702.87L528.178 720.275Z" fill="#2F2E41"/>
<path d="M402.792 706.957L390.441 701.68L404.916 651.528L423.145 659.316L402.792 706.957Z" fill="#FFB7B7"/>
<path d="M400.828 720.275L361.002 703.261L361.217 702.757C362.974 698.646 366.291 695.401 370.44 693.736C374.589 692.071 379.229 692.122 383.34 693.878L383.341 693.878L407.666 704.27L400.828 720.275Z" fill="#2F2E41"/>
<path d="M459.468 470.401L458.496 486.14L486.887 489.178L516.593 492.357L507.849 468.458L459.468 470.401Z" fill="#FFB7B7"/>
<path d="M457.602 486.342L446.573 409.455L465.69 403.19L471.304 395.49L498.627 397.107L502.639 406.092L517.208 412.976L514.969 454.558L516.602 489.342L457.602 486.342Z" fill="#2F2E41"/>
<path d="M450.66 465.738L431.216 457.958L431.299 457.612C431.382 457.264 439.658 422.68 440.757 417.122C441.902 411.332 446.084 409.732 446.261 409.667L446.391 409.619L454.086 411.961L457.466 438.515L450.66 465.738Z" fill="#2F2E41"/>
<path d="M412.796 697.852L386.912 692.542L428.282 578.388L442.44 539.452C442.44 539.452 451.421 508.233 455.478 496.152L457.926 479.942L515.888 486.358C515.888 486.358 532.077 510.132 527.159 548.883L529.383 694.533L503.499 695.861L481.819 548.965L443.768 629.492C443.768 629.492 431.774 663.856 423.194 671.304L412.796 697.852Z" fill="#2F2E41"/>
<path d="M492.644 491.764C493.1 491.753 493.556 491.778 494.008 491.839L521.048 461.205L517.903 451.79L531.491 445.186L538.679 461.312C539.26 462.615 539.402 464.071 539.085 465.462C538.768 466.852 538.008 468.103 536.92 469.025L501.453 499.077C501.724 500.812 501.459 502.589 500.695 504.17C499.932 505.752 498.704 507.063 497.177 507.93C495.65 508.797 493.894 509.179 492.145 509.024C490.395 508.869 488.735 508.185 487.383 507.063C486.032 505.941 485.054 504.435 484.58 502.744C484.106 501.053 484.158 499.257 484.729 497.596C485.3 495.935 486.363 494.488 487.777 493.446C489.191 492.404 490.889 491.817 492.644 491.764Z" fill="#FFB7B7"/>
<path d="M518.889 464.186L507.609 437.653L512.009 419.172L516.749 413.183C517.096 413.035 517.47 412.96 517.848 412.963C518.226 412.967 518.598 413.049 518.943 413.204C520.691 413.907 522.18 416.064 523.368 419.613L533.939 449.724L518.889 464.186Z" fill="#2F2E41"/>
<path d="M460.367 385.658V365.655C460.367 358.546 463.191 351.728 468.218 346.701C473.245 341.675 480.063 338.851 487.172 338.851C494.28 338.851 501.098 341.675 506.125 346.701C511.152 351.728 513.976 358.546 513.976 365.655V385.658C513.975 386.613 513.595 387.528 512.92 388.203C512.245 388.878 511.33 389.258 510.375 389.259H463.968C463.013 389.258 462.098 388.878 461.423 388.203C460.748 387.528 460.368 386.613 460.367 385.658Z" fill="#2F2E41"/>
<path d="M481.664 388.793C492.517 388.793 501.316 379.994 501.316 369.141C501.316 358.287 492.517 349.489 481.664 349.489C470.81 349.489 462.012 358.287 462.012 369.141C462.012 379.994 470.81 388.793 481.664 388.793Z" fill="#FFB7B7"/>
<path d="M454.026 367.255C454.033 361.634 456.269 356.244 460.244 352.269C464.219 348.294 469.608 346.058 475.23 346.052H479.231C484.852 346.058 490.242 348.294 494.217 352.269C498.192 356.244 500.428 361.634 500.434 367.255V367.655H491.979L489.096 359.58L488.519 367.655H484.149L482.694 363.581L482.403 367.655H454.026L454.026 367.255Z" fill="#2F2E41"/>
<path d="M479.73 391.508C479.333 390.971 479.096 390.332 479.046 389.666C478.996 388.999 479.135 388.332 479.448 387.742C483.687 379.678 489.623 364.778 481.744 355.589L481.178 354.929H504.052V389.27L483.273 392.936C483.062 392.974 482.849 392.992 482.636 392.993C482.068 392.993 481.509 392.858 481.004 392.6C480.499 392.342 480.062 391.968 479.73 391.508Z" fill="#2F2E41"/>
<path d="M212.904 695.939L225.042 700.277L247.551 655.522L229.636 649.12L212.904 695.939Z" fill="#9F616A"/>
<path d="M205.603 706.599L211.224 690.869L235.129 699.412C239.166 700.861 242.464 703.851 244.3 707.728C246.135 711.604 246.358 716.051 244.919 720.091L244.742 720.586L205.603 706.599Z" fill="#2F2E41"/>
<path d="M291.836 707.945L304.726 707.944L310.859 658.225L291.834 658.226L291.836 707.945Z" fill="#9F616A"/>
<path d="M288.548 703.736L313.933 703.735H313.934C316.059 703.735 318.162 704.154 320.125 704.967C322.088 705.78 323.871 706.971 325.374 708.474C326.876 709.976 328.068 711.759 328.881 713.722C329.694 715.685 330.112 717.788 330.112 719.913V720.439L288.549 720.44L288.548 703.736Z" fill="#2F2E41"/>
<path d="M262.459 390.299L268.065 379.222C268.065 379.222 288.949 384.454 290.847 396.558L262.459 390.299Z" fill="#F1F1F1"/>
<path d="M239.328 516.959L254.573 602.033L214.093 673.621L238.276 683.084L279.282 613.69L284.539 594.764L287.693 693.598L309.503 692.936L319.502 600.649L303.464 514.856L239.328 516.959Z" fill="#2F2E41"/>
<path d="M268.267 537.07C245.871 537.07 231.651 532.787 231.332 532.719L230.816 532.609L242.482 478.523L243.007 428.634C243.007 407.492 256.922 391.906 258.852 390.467C259.178 389.184 259.779 387.987 260.614 386.96C261.45 385.934 262.499 385.102 263.69 384.522C268.331 382.416 274.003 384.943 274.242 385.052L291.265 391.435L291.345 391.671C291.55 392.276 313.972 465.885 313.972 465.885C313.972 465.885 312.615 530.2 312.142 532.307C312.142 532.307 280.711 537.07 268.267 537.07Z" fill="#3F3D56"/>
<path d="M285.477 375.734C298.184 375.734 308.485 365.433 308.485 352.726C308.485 340.019 298.184 329.718 285.477 329.718C272.77 329.718 262.469 340.019 262.469 352.726C262.469 365.433 272.77 375.734 285.477 375.734Z" fill="#9F616A"/>
<path opacity="0.2" d="M259.823 432.714L300.076 488.876L306.02 462.649L259.823 432.714Z" fill="black"/>
<path d="M386.023 470.927C384.891 471.823 383.577 472.459 382.172 472.792C380.767 473.124 379.307 473.145 377.893 472.852C376.48 472.559 375.148 471.959 373.991 471.096C372.835 470.232 371.881 469.126 371.198 467.854L336.552 473.4L344.058 456.783L375.808 454.064C378.021 453.059 380.525 452.9 382.847 453.618C385.169 454.335 387.147 455.88 388.406 457.959C389.665 460.037 390.118 462.505 389.679 464.896C389.24 467.286 387.939 469.432 386.023 470.927H386.023Z" fill="#9F616A"/>
<path d="M345.842 455.837L358.291 454.616L361.741 471.982L346.076 472.259L345.842 455.837Z" fill="#F1F1F1"/>
<path d="M356.047 478.033L295.078 472.604L264.292 423.644L264.197 423.211C263.323 419.211 263.935 415.031 265.918 411.449C267.901 407.867 271.12 405.13 274.973 403.748C278.827 402.366 283.052 402.433 286.859 403.938C290.666 405.443 293.796 408.282 295.664 411.925L313.736 447.176L350.208 452.689L356.047 478.033Z" fill="#3F3D56"/>
<path d="M265.879 372.703L284.976 373.388C286.14 373.43 289.299 360.867 289.713 358.261C290.039 356.564 290.973 355.045 292.338 353.986C293.704 352.927 295.408 352.401 297.132 352.507C298.562 352.642 302.167 349.971 305.886 346.809C312.948 340.805 312.581 329.529 304.823 324.455C304.611 324.317 304.403 324.19 304.199 324.076C299.305 321.336 293.58 320.417 287.972 320.347C282.889 320.283 277.661 320.923 273.182 323.329C265.153 327.643 260.88 337.07 260.504 346.177C260.129 355.284 263.049 364.189 266.362 372.68" fill="#2F2E41"/>
<path d="M744.602 721.342H1C0.734784 721.342 0.480429 721.237 0.292892 721.049C0.105356 720.862 0 720.608 0 720.342C0 720.077 0.105356 719.823 0.292892 719.635C0.480429 719.448 0.734784 719.342 1 719.342H745C745.265 719.342 745.52 719.448 745.707 719.635C745.895 719.823 746 720.077 746 720.342C746 720.895 745.155 721.342 744.602 721.342Z" fill="#CBCBCB"/>
</svg>
